<?xml version="1.0" standalone="no"?>
<!DOCTYPE svg PUBLIC "-//W3C//DTD SVG 1.1//EN" "http://www.w3.org/Graphics/SVG/1.1/DTD/svg11.dtd" >
<svg xmlns="http://www.w3.org/2000/svg" xmlns:xlink="http://www.w3.org/1999/xlink" version="1.1">
<metadata>
Created by FontForge 20170924 at Tue Oct 13 23:14:50 2020
 By www-data
Copyright \(c\) 2020 by Wachid Ristiyanto Ngene. All rights reserved.
</metadata>
<defs>
<font id="Sceageus" horiz-adv-x="693" >
  <font-face 
    font-family="Sceageus"
    font-weight="400"
    font-stretch="normal"
    units-per-em="1000"
    panose-1="0 0 0 0 0 0 0 0 0 0"
    ascent="750"
    descent="-250"
    x-height="500"
    cap-height="737"
    bbox="-309 -255 1218 953"
    underline-thickness="50"
    underline-position="-100"
    unicode-range="U+0020-20AC"
  />
<missing-glyph horiz-adv-x="345" 
 />
    <glyph glyph-name=".notdef" horiz-adv-x="345" 
 />
    <glyph glyph-name="b" unicode="b" horiz-adv-x="649" 
d="M56 737h228c-147 -35 -148 -194 -126 -328c43 43 132 91 200 91c191 0 262 -119 260 -280c-1 -97 -64 -220 -172 -220c-52 0 -125 18 -188 70c15 -26 31 -50 50 -70h-308c85 41 75 169 50 296c-26 127 -99 343 6 441v0zM242 186c46 -25 112 -42 171 -46
c195 -10 167 150 45 205c-59 27 -155 21 -215 -22c-60 -44 -72 -97 -1 -137v0z" />
    <glyph glyph-name="c" unicode="c" horiz-adv-x="618" 
d="M232 500c96 0 236 -74 306 16l51 -140c-78 -100 -234 -42 -319 -4c-236 106 -312 -229 -11 -242c97 -4 217 21 330 103v-176c-60 -35 -173 -57 -289 -57c-417 0 -361 500 -68 500v0z" />
    <glyph glyph-name="d" unicode="d" horiz-adv-x="639" 
d="M561 737v0c105 -98 32 -314 6 -441s-35 -255 50 -296h-308c19 20 35 44 49 70c-62 -52 -135 -70 -187 -70c-108 0 -175 118 -171 215c7 151 104 285 260 285c56 0 154 -36 199 -87c22 134 19 290 -126 324h228zM379 189v0c53 30 59 65 19 111c-54 64 -171 77 -240 45
c-122 -55 -149 -215 46 -205c61 4 129 22 175 49z" />
    <glyph glyph-name="e" unicode="e" horiz-adv-x="618" 
d="M140 159c30 -16 70 -27 119 -29c97 -4 217 21 330 103v-176c-60 -35 -173 -57 -289 -57c-200 0 -300 117 -300 250c0 132 100 250 300 250c207 0 289 -85 289 -178c0 -115 -139 -136 -228 -119c-56 11 -160 37 -211 30c-49 -6 -71 -40 -10 -74v0zM86 242
c62 80 214 34 269 24c76 -15 82 57 36 98c-73 64 -209 67 -277 -3c-26 -26 -42 -74 -28 -119v0z" />
    <glyph glyph-name="f" unicode="f" horiz-adv-x="600" 
d="M228 -237v0h-228c103 83 69 362 19 514c-44 132 -16 223 140 223c89 0 194 -28 251 -29c46 0 87 11 114 45l52 -139c-98 -125 -223 -33 -325 26c-117 68 -158 23 -129 -52c40 -106 177 -200 288 -200c46 0 87 10 114 45l52 -140c-33 -41 -83 -56 -137 -56
c-88 1 -180 62 -249 144c43 -133 83 -299 38 -381z" />
    <glyph glyph-name="g" unicode="g" horiz-adv-x="637" 
d="M460 90c-36 -40 -108 -82 -174 -88c-172 -16 -278 124 -286 283c-4 97 63 215 171 215c52 0 125 -18 187 -70c-14 26 -30 50 -49 70h308c-63 -31 -74 -109 -65 -200c7 -70 41 -195 48 -307c9 -140 -19 -231 -172 -231c-56 0 -147 19 -223 26c-65 7 -110 13 -153 -42
l-52 140c23 28 50 44 82 51c144 32 221 -98 333 -116c49 -8 64 57 56 177c-2 30 -6 61 -11 92v0zM382 309c-45 28 -115 47 -178 50c-195 11 -168 -149 -46 -205c68 -31 185 -18 239 45c39 44 37 79 -15 110v0z" />
    <glyph glyph-name="h" unicode="h" horiz-adv-x="643" 
d="M480 500v0c78 0 141 -36 135 -121c-2 -25 -7 -50 -13 -71c-15 -57 -33 -113 -41 -171c-6 -48 -3 -109 56 -137h-257c-77 117 34 186 116 254c85 72 108 131 -19 143c-88 9 -200 -19 -232 -94c-16 -37 -19 -80 -9 -124c16 -73 54 -139 92 -179h-308c85 41 75 169 50 296
c-26 127 -99 343 6 441h228c-177 -42 -142 -263 -111 -405c58 109 180 168 307 168z" />
    <glyph glyph-name="i" unicode="i" horiz-adv-x="335" 
d="M308 500v0c-50 -53 -100 -153 -100 -250c0 -98 50 -197 100 -250h-308c50 53 100 151 100 250c0 98 -50 197 -100 250h308zM157 699c73 0 132 -39 132 -87c0 -49 -59 -88 -132 -88c-74 0 -133 39 -133 88c0 48 59 87 133 87v0z" />
    <glyph glyph-name="j" unicode="j" horiz-adv-x="334" 
d="M-257 -254l-52 140c23 28 50 44 81 51c145 32 222 -98 334 -116c49 -8 64 57 56 177c-6 95 -32 204 -57 289c-24 81 -56 161 -105 213h308c-63 -31 -74 -109 -65 -200c7 -70 41 -195 48 -307c9 -140 -19 -231 -172 -231c-56 0 -148 19 -223 26c-65 7 -110 13 -153 -42v0z
M157 699c73 0 132 -39 132 -87s-59 -88 -132 -88c-74 0 -133 40 -133 88s59 87 133 87v0z" />
    <glyph glyph-name="k" unicode="k" horiz-adv-x="626" 
d="M56 737h228c-133 -31 -146 -165 -131 -290c46 42 123 53 185 53c80 0 172 -25 208 16l52 -140c-82 -104 -200 -33 -294 2c-93 35 -139 1 -133 -36l1 -4c5 -18 21 -35 51 -45c153 -52 375 -35 375 -201c0 -44 -15 -69 0 -92h-245c84 89 5 176 -91 208c-23 8 -45 17 -66 27
c24 -89 58 -178 112 -235h-308c85 41 75 169 50 296c-26 127 -99 343 6 441v0z" />
    <glyph glyph-name="l" unicode="l" horiz-adv-x="600" 
d="M228 737c70 -129 -65 -457 -97 -552c-46 -138 14 -149 120 -88c102 59 228 151 325 26l-52 -139c-27 35 -68 45 -114 45c-57 0 -162 -29 -251 -29c-156 0 -184 92 -140 224c51 150 84 429 -19 513h228v0z" />
    <glyph glyph-name="m" unicode="m" horiz-adv-x="988" 
d="M823 500v0c78 0 141 -36 135 -121c-1 -25 -7 -50 -13 -71c-15 -57 -33 -113 -40 -171c-7 -48 -4 -109 56 -137h-257c-77 117 33 186 115 254c77 64 114 132 -15 143c-100 8 -178 -30 -214 -127c-36 -94 -38 -227 55 -270h-285c-77 117 34 186 116 254
c85 72 108 131 -19 143c-88 9 -200 -19 -232 -94c-16 -37 -19 -80 -9 -124c16 -73 54 -139 92 -179h-308c50 53 100 152 100 250c0 97 -50 197 -100 250h308c-18 -19 -36 -44 -52 -73c80 73 196 73 224 73c65 0 120 -26 133 -84c59 63 158 84 210 84z" />
    <glyph glyph-name="n" unicode="n" horiz-adv-x="642" 
d="M480 500v0c78 0 141 -36 135 -121c-2 -25 -7 -50 -13 -71c-15 -57 -33 -113 -41 -171c-6 -48 -3 -109 56 -137h-257c-77 117 34 186 116 254c85 72 108 131 -19 143c-88 9 -200 -19 -232 -94c-16 -37 -19 -80 -9 -124c16 -73 54 -139 92 -179h-308c50 53 100 152 100 250
c0 97 -50 197 -100 250h308c-18 -19 -36 -44 -52 -73c80 73 196 73 224 73z" />
    <glyph glyph-name="o" unicode="o" horiz-adv-x="608" 
d="M580 277c2 -73 -37 -169 -94 -217c-56 -48 -142 -60 -215 -60c-167 0 -265 28 -271 222c-2 73 37 169 94 217c56 48 142 61 215 61c168 0 265 -29 271 -223zM511 331c9 78 -24 92 -53 88c-79 -10 -372 -113 -389 -250c-9 -78 25 -93 53 -89c79 11 372 114 389 251z" />
    <glyph glyph-name="p" unicode="p" horiz-adv-x="645" 
d="M158 89v0c-22 -134 -20 -291 126 -326h-228c-105 98 -32 314 -6 442c25 127 35 254 -50 295h308c-19 -20 -35 -43 -50 -70c63 52 136 70 188 70c108 0 175 -118 171 -215c-8 -158 -114 -299 -286 -283c-66 6 -137 47 -173 87zM236 311v0c-50 -30 -56 -63 -20 -108
c53 -66 173 -80 242 -48c122 56 150 215 -45 205c-62 -3 -132 -23 -177 -49z" />
    <glyph glyph-name="q" unicode="q" horiz-adv-x="643" 
d="M459 89c-36 -40 -107 -81 -173 -87c-172 -16 -278 125 -286 283c-4 97 63 215 171 215c52 0 125 -18 187 -70c-14 27 -30 50 -49 70h308c-85 -41 -76 -168 -50 -295c26 -128 99 -344 -6 -442h-228c146 35 148 192 126 326v0zM381 311c-46 26 -115 46 -177 49
c-195 10 -168 -149 -46 -205c70 -32 190 -18 243 48c36 45 30 78 -20 108v0z" />
    <glyph glyph-name="r" unicode="r" horiz-adv-x="643" 
d="M508 313v0c-75 0 -126 50 -170 85c-82 68 -124 34 -131 -63c-4 -52 1 -111 6 -142c14 -78 54 -151 95 -193h-308c50 53 100 151 100 250c0 98 -50 197 -100 250h158c19 0 33 -13 41 -35c22 21 49 35 82 35c90 0 114 -29 171 -29c46 0 87 10 114 45l51 -140
c-31 -40 -69 -63 -109 -63z" />
    <glyph glyph-name="s" unicode="s" horiz-adv-x="614" 
d="M52 -16l-52 140c78 100 258 43 344 4c44 -20 120 -27 149 20c14 22 12 50 -9 68c-37 31 -112 24 -188 11c-64 -11 -128 -25 -170 -24c-123 2 -155 135 -100 218c39 58 116 79 182 79c76 0 144 -28 216 -29c46 0 87 11 114 46l52 -140c-78 -100 -259 -43 -344 -4
c-44 19 -120 27 -150 -21c-13 -22 -11 -49 10 -67c36 -32 112 -24 188 -11c64 10 128 24 170 24c111 -3 148 -112 113 -194c-32 -76 -118 -104 -195 -104c-76 0 -144 29 -216 29c-46 0 -87 -10 -114 -45v0z" />
    <glyph glyph-name="t" unicode="t" horiz-adv-x="600" 
d="M227 737c45 -83 5 -248 -37 -380c68 80 160 142 248 142c54 0 104 -14 137 -56l-52 -138c-27 34 -68 45 -114 45c-111 -1 -247 -95 -287 -200c-29 -76 12 -120 128 -52c102 59 227 150 325 26l-52 -140c-27 35 -68 45 -114 45c-57 0 -162 -29 -250 -29
c-156 0 -184 92 -140 224c50 151 84 429 -19 513h227v0z" />
    <glyph glyph-name="u" unicode="u" horiz-adv-x="641" 
d="M138 0v0c-78 0 -141 36 -136 121c2 24 8 49 13 71c16 56 34 112 41 171c6 47 4 109 -56 137h257c77 -117 -34 -187 -115 -255c-86 -71 -109 -129 19 -141c87 -9 199 18 232 92c16 37 18 80 9 125c-16 72 -54 139 -92 179h307c-50 -53 -100 -153 -100 -250
c0 -98 50 -197 100 -250h-307c18 19 36 44 52 73c-80 -73 -197 -73 -224 -73z" />
    <glyph glyph-name="v" unicode="v" horiz-adv-x="555" 
d="M155 0v0c-138 0 -171 75 -140 192c16 56 34 112 41 171c6 47 4 109 -56 137h257c77 -117 -34 -187 -115 -255c-86 -71 -109 -129 19 -141c87 -9 199 18 232 92c16 37 18 80 9 125c-16 72 -54 139 -92 179h219c-56 -62 -74 -119 -72 -200c4 -213 -92 -300 -302 -300z" />
    <glyph glyph-name="w" unicode="w" horiz-adv-x="850" 
d="M610 500h219c-56 -62 -74 -119 -72 -200c4 -213 -92 -300 -302 -300c-67 0 -134 26 -150 86c-17 -35 -66 -86 -150 -86c-138 0 -171 75 -140 192c16 56 34 112 41 171c6 47 4 109 -56 137h257c77 -117 -34 -187 -115 -255c-86 -71 -109 -129 19 -141
c113 -11 190 115 200 235c5 59 -11 134 -61 161h257c77 -117 -34 -187 -115 -255c-86 -71 -109 -129 19 -141c87 -9 199 18 232 92c16 37 18 80 9 125c-16 72 -54 139 -92 179v0z" />
    <glyph glyph-name="x" unicode="x" horiz-adv-x="610" 
d="M293 276v0c100 0 178 117 36 224h257c-22 -23 0 -120 -42 -177c-26 -35 -67 -62 -132 -73c65 -12 106 -39 132 -74c42 -57 20 -154 42 -176h-257c142 107 64 224 -36 224c-99 0 -178 -117 -36 -224h-257c22 22 0 119 42 176c26 35 67 62 132 74c-65 11 -106 38 -132 73
c-42 57 -20 154 -42 177h257c-142 -107 -63 -224 36 -224z" />
    <glyph glyph-name="y" unicode="y" horiz-adv-x="639" 
d="M53 -254l-52 140c22 29 50 44 81 51c144 32 222 -98 334 -116c49 -8 63 57 56 177c-4 55 -14 114 -26 170c-58 -108 -189 -168 -308 -168c-78 0 -141 36 -136 121c2 25 8 50 13 71c16 57 34 113 41 171c6 48 4 109 -56 137h257c77 -117 -34 -186 -115 -254
c-86 -72 -109 -129 19 -142c78 -7 176 13 219 71c46 62 26 152 -3 218c-18 41 -40 78 -67 107h307c-62 -30 -74 -109 -64 -199c7 -70 41 -196 48 -308c9 -140 -20 -230 -172 -230c-57 0 -148 18 -223 26c-65 6 -110 12 -153 -43v0z" />
    <glyph glyph-name="z" unicode="z" horiz-adv-x="616" 
d="M538 -16v0c-27 35 -68 45 -114 45c-72 0 -140 -29 -216 -29c-77 0 -163 28 -195 104c-35 82 2 191 113 194c42 0 106 -14 170 -24c76 -13 151 -21 188 11c21 18 23 45 9 67c-29 48 -105 40 -149 21c-86 -39 -266 -96 -344 4l52 139c27 -34 68 -45 114 -45
c72 1 140 29 216 29c66 0 143 -21 182 -79c55 -83 22 -216 -100 -218c-42 -1 -106 13 -170 24c-76 13 -152 20 -188 -11c-21 -18 -23 -46 -10 -68c30 -47 106 -40 150 -20c86 38 266 96 344 -4z" />
    <glyph glyph-name="A" unicode="A" horiz-adv-x="685" 
d="M192 269c45 0 206 82 258 22c13 81 29 166 39 246c-93 -97 -243 -168 -297 -268v0zM413 205c-56 46 -219 -11 -238 -80c-10 -42 16 -96 45 -125h-209c-14 92 -25 219 38 297c80 101 251 183 313 267c-76 -24 -194 -49 -245 -44c-43 4 -83 20 -109 53l50 177
c68 -87 377 -15 480 -13c118 1 129 -93 115 -210c-13 -104 -37 -210 -49 -315c-11 -80 0 -164 46 -212h-209c-22 62 11 172 -28 205v0z" />
    <glyph glyph-name="B" unicode="B" horiz-adv-x="691" 
d="M219 737c7 -36 10 -76 10 -117c50 59 159 117 253 117c126 0 183 -63 183 -132c0 -73 -55 -147 -150 -170c87 -5 150 -89 150 -169c0 -156 -102 -266 -262 -266c-113 0 -185 43 -223 74c8 -29 20 -55 39 -74h-210c-10 63 -13 134 -3 210c13 104 34 206 48 310
c11 80 2 168 -45 217h210v0zM185 249c8 -165 144 -187 289 -55c107 98 66 235 -81 159c-52 -27 -100 -73 -128 -114l-36 123c66 39 140 82 194 141c98 108 74 202 -59 117c-116 -74 -185 -240 -179 -371v0z" />
    <glyph glyph-name="C" unicode="C" horiz-adv-x="691" 
d="M351 737c72 0 121 -32 172 -28c33 2 65 13 89 44l52 -177c-27 -35 -67 -51 -110 -55c-113 -11 -195 62 -309 54c-177 -12 -261 -337 -11 -390c139 -29 335 24 430 118v-223c-68 -41 -214 -80 -318 -80c-192 0 -346 108 -346 364c0 245 178 373 351 373v0z" />
    <glyph glyph-name="D" unicode="D" horiz-adv-x="689" 
d="M219 737c6 -36 10 -75 10 -116c51 74 139 116 230 116c106 0 205 -77 205 -325c0 -198 -114 -412 -292 -412c-98 0 -156 32 -188 61c8 -24 19 -45 35 -61h-210c-10 63 -13 134 -3 210c13 104 34 206 48 310c11 80 2 168 -45 217h210v0zM470 258c22 54 33 118 34 178
c0 207 -110 267 -211 131c-58 -77 -99 -196 -102 -294c-7 -223 202 -198 279 -15v0z" />
    <glyph glyph-name="E" unicode="E" 
d="M351 737c72 0 121 -32 172 -29c33 3 65 14 89 45l52 -178c-27 -34 -67 -50 -110 -54c-113 -11 -195 61 -309 54c-71 -5 -128 -61 -153 -129c33 10 70 4 104 -3c84 -16 177 -43 230 26l52 -140c-78 -100 -234 -42 -319 -4c-47 21 -87 3 -60 -47c23 -43 66 -79 135 -93
c139 -29 335 24 430 118v-223c-68 -41 -214 -80 -318 -80c-192 0 -346 108 -346 364c0 244 178 373 351 373v0z" />
    <glyph glyph-name="F" unicode="F" horiz-adv-x="697" 
d="M3 529v0c-19 149 53 208 192 208c123 0 266 -47 360 -24c23 5 45 17 63 40l52 -177c-27 -38 -68 -55 -112 -58c-118 -6 -250 59 -347 114c-118 67 -151 -5 -83 -101c96 -136 395 -277 490 -155l52 -178c-157 -108 -325 -12 -447 106c26 -89 34 -179 15 -304h-232
c47 48 57 134 47 213c-13 105 -37 210 -50 316z" />
    <glyph glyph-name="G" unicode="G" 
d="M351 737c72 0 121 -32 172 -28c33 2 65 13 89 44l52 -177c-27 -35 -67 -51 -110 -55c-113 -11 -195 62 -309 54c-177 -12 -261 -337 -11 -390c89 -19 201 -4 296 35c78 31 103 108 -9 73c-82 -26 -180 -36 -236 37l51 139c54 -69 151 -41 238 -25c81 15 90 -37 90 -102
v-262c-68 -41 -214 -80 -318 -80c-192 0 -346 108 -346 364c0 245 178 373 351 373v0z" />
    <glyph glyph-name="H" unicode="H" horiz-adv-x="689" 
d="M651 737c11 -62 13 -133 4 -208c-14 -106 -38 -211 -50 -316c-10 -79 0 -165 46 -213h-223c-44 75 12 163 18 244c13 191 -199 171 -262 25c-36 -85 -12 -201 56 -269h-231c-10 63 -13 134 -3 210c13 104 34 206 48 310c11 80 2 168 -45 217h210c11 -62 13 -133 4 -208
c-3 -22 -6 -43 -10 -65c83 37 199 13 256 -56c19 112 30 250 -47 329h229v0z" />
    <glyph glyph-name="I" unicode="I" horiz-adv-x="257" 
d="M219 737c11 -62 13 -133 4 -208c-14 -106 -38 -211 -50 -316c-10 -79 0 -165 46 -213h-210c-10 63 -13 134 -3 210c13 104 34 206 48 310c11 80 2 168 -45 217h210v0z" />
    <glyph glyph-name="J" unicode="J" horiz-adv-x="699" 
d="M667 208v0c19 -150 -53 -208 -193 -208c-122 0 -265 47 -359 24c-24 -6 -46 -18 -63 -41l-52 178c27 37 68 55 111 57c118 6 245 -52 343 -107c67 -38 151 -33 94 83c-97 197 -156 309 -116 543h232c-47 -48 -57 -134 -47 -213c13 -106 37 -210 50 -316z" />
    <glyph glyph-name="K" unicode="K" horiz-adv-x="680" 
d="M219 737c11 -62 13 -133 4 -208c-6 -47 -14 -93 -22 -140c30 6 63 12 96 15l128 333h229c-71 -20 -151 -223 -193 -340c105 -22 187 -87 187 -233c0 -43 -27 -132 0 -164h-274c252 255 -9 337 -186 314c-6 -34 -11 -68 -15 -101c-10 -79 0 -165 46 -213h-210
c-10 63 -13 134 -3 210c13 104 34 206 48 310c11 80 2 168 -45 217h210v0z" />
    <glyph glyph-name="L" unicode="L" 
d="M3 208c13 106 37 210 50 316c10 79 0 165 -47 213h232c40 -234 -20 -346 -117 -543c-57 -116 28 -121 95 -83c97 55 224 113 342 107c44 -2 85 -20 112 -57l-52 -178c-18 23 -40 35 -63 41c-94 23 -237 -24 -360 -24c-139 0 -211 58 -192 208v0z" />
    <glyph glyph-name="M" unicode="M" horiz-adv-x="937" 
d="M314 0c39 120 -14 396 -57 543c-45 152 -121 180 -95 -20c21 -167 97 -477 137 -523h-290c-10 63 -13 134 -3 210c13 104 34 206 48 310c11 80 2 168 -45 217h434c-39 -312 -72 -529 11 -529c82 0 49 217 10 529h435c-48 -49 -56 -137 -46 -217c14 -104 35 -206 48 -310
c10 -76 7 -147 -3 -210h-290c40 46 116 356 138 523c25 200 -51 172 -96 20c-43 -147 -95 -423 -56 -543h-280v0z" />
    <glyph glyph-name="N" unicode="N" 
d="M627 0h-207c-294 0 -136 303 -144 524c-3 66 -26 148 -108 141c-37 -3 -64 -27 -29 -74c49 -66 56 -170 49 -248c-10 -124 -50 -272 99 -343h-278c-10 63 -13 134 -3 210c13 104 34 206 48 310c11 80 2 168 -45 217h229c51 0 85 -17 103 -67c57 -168 3 -460 118 -567
c-49 96 -9 265 2 392c8 98 8 221 -114 242h272c57 -63 49 -128 38 -206c-23 -163 -88 -382 -30 -531v0z" />
    <glyph glyph-name="O" unicode="O" 
d="M664 409c2 -108 -42 -249 -108 -320c-64 -71 -162 -89 -245 -89c-193 0 -304 42 -311 328c-2 108 42 249 107 320s163 89 246 89c192 0 304 -42 311 -328zM570 466c10 109 -26 158 -57 153c-85 -15 -401 -158 -419 -349c-11 -108 26 -157 57 -152c85 14 401 158 419 348z
" />
    <glyph glyph-name="P" unicode="P" horiz-adv-x="726" 
d="M219 737c7 -38 10 -80 9 -124c71 79 172 124 248 124c136 0 224 -77 224 -261c0 -121 -55 -310 -198 -310c-96 0 -182 74 -252 -16l-54 171c78 100 183 42 269 4c99 -45 152 24 153 104c1 131 -112 176 -224 147c-111 -30 -185 -138 -204 -247c-7 -39 -13 -78 -17 -116
c-10 -79 0 -165 46 -213h-210c-10 63 -13 134 -3 210c13 104 34 206 48 310c11 80 2 168 -45 217h210v0z" />
    <glyph glyph-name="Q" unicode="Q" horiz-adv-x="691" 
d="M146 22c-65 -171 346 -55 415 -13l52 -178c-197 -65 -637 -73 -530 228v0c-51 47 -80 129 -83 269c-2 108 42 249 107 321c65 70 163 88 246 88c192 0 304 -41 311 -328c2 -107 -42 -249 -108 -320c-64 -70 -162 -89 -245 -89c-65 0 -120 5 -165 22zM94 271
c-11 -108 26 -158 57 -153c85 15 401 158 419 349c10 108 -26 158 -57 152c-85 -14 -401 -158 -419 -348z" />
    <glyph glyph-name="R" unicode="R" horiz-adv-x="728" 
d="M219 737c7 -40 11 -85 9 -132c58 69 157 132 251 132c153 0 221 -95 221 -214c0 -114 -75 -215 -190 -231c-77 -11 -161 9 -238 -7c-102 -20 -138 -74 2 -98c113 -19 311 -8 364 81l62 -214c-60 -44 -142 -54 -199 -54c-117 0 -246 30 -330 117c6 -46 20 -89 48 -117
h-210c-10 63 -13 134 -3 210c13 104 34 206 48 310c11 80 2 168 -45 217h210v0zM189 336c58 55 204 76 263 100c112 48 108 205 -27 183c-124 -21 -208 -175 -236 -283v0z" />
    <glyph glyph-name="S" unicode="S" 
d="M52 -16l-52 177c78 99 258 42 344 4c66 -30 108 -44 147 -44c116 0 145 154 23 192c-81 25 -196 -11 -261 -34c-153 -56 -254 12 -253 181c1 136 109 277 261 277c76 0 165 -28 237 -28c46 -1 87 10 114 45l52 -178c-39 -50 -103 -60 -169 -54c-83 8 -191 87 -281 60
c-77 -23 -139 -120 -134 -196c2 -37 32 -45 79 -26c91 35 221 109 325 118c133 13 181 -113 180 -228c-3 -179 -106 -250 -283 -250c-76 0 -143 29 -215 29c-46 0 -87 -10 -114 -45v0z" />
    <glyph glyph-name="T" unicode="T" horiz-adv-x="703" 
d="M674 576v0c-39 0 -113 2 -197 3c-399 5 162 -329 -2 -579h-292c172 184 -14 457 71 579c-93 -2 -172 -7 -202 -18l-52 178c117 -1 541 -16 623 14z" />
    <glyph glyph-name="U" unicode="U" horiz-adv-x="695" 
d="M657 737c11 -62 13 -133 3 -208c-13 -106 -37 -211 -50 -316c-9 -79 0 -165 47 -213h-323c27 23 51 61 71 107c-61 -68 -155 -107 -235 -107c-93 0 -149 39 -164 122c-29 167 138 548 -6 615h267c100 -152 4 -237 -95 -362c-189 -240 -24 -297 124 -218
c150 79 203 266 171 425c-13 64 -44 123 -103 155h293v0z" />
    <glyph glyph-name="V" unicode="V" 
d="M657 737c53 -306 -124 -737 -474 -737c-93 0 -162 39 -177 122c-29 167 138 548 -6 615h267c100 -152 4 -237 -95 -362c-189 -240 -24 -297 124 -218c150 79 203 266 171 425c-13 64 -44 123 -103 155h293v0z" />
    <glyph glyph-name="W" unicode="W" horiz-adv-x="1058" 
d="M395 61c-61 -38 -132 -61 -212 -61c-93 0 -162 39 -177 122c-29 167 138 548 -6 615h267c100 -152 4 -237 -95 -362c-169 -215 -57 -287 72 -240c204 74 326 492 120 602h267c100 -152 44 -237 -55 -362c-144 -183 -106 -259 -14 -251c213 20 306 274 269 458
c-14 64 -44 123 -103 155h293c52 -306 -124 -737 -475 -737c-65 0 -120 20 -151 61v0z" />
    <glyph glyph-name="X" unicode="X" horiz-adv-x="769" 
d="M371 472c58 80 145 155 90 265h282c0 -260 -325 -258 -325 -369c0 -109 325 -109 325 -368h-282c56 111 -32 184 -90 263c-58 -79 -145 -152 -90 -263h-281c0 259 324 259 324 368c0 111 -324 109 -324 369h281c-54 -110 33 -185 90 -265v0z" />
    <glyph glyph-name="Y" unicode="Y" horiz-adv-x="697" 
d="M667 208v0c18 -150 -54 -208 -193 -208c-122 0 -265 47 -359 24c-24 -6 -46 -18 -63 -41l-52 178c27 37 68 55 111 57c118 6 245 -52 343 -107c66 -38 151 -32 94 83c-48 99 -88 176 -110 258c-42 -79 -105 -148 -186 -180c-132 -52 -307 -12 -235 177
c35 94 94 236 -17 288h267c54 -82 -12 -219 -77 -285c-66 -66 -72 -125 4 -107c154 37 217 248 236 392h234c-47 -48 -57 -134 -47 -213c13 -106 36 -210 50 -316z" />
    <glyph glyph-name="Z" unicode="Z" 
d="M612 -17v0c-27 35 -68 46 -114 45c-72 0 -140 -28 -216 -28c-177 0 -280 70 -282 250c-1 114 46 240 180 228c64 -6 138 -36 207 -67c242 -109 272 179 64 181c-102 2 -194 -62 -283 -71c-65 -6 -129 5 -168 54l52 178c27 -35 68 -45 114 -45c72 0 160 29 236 29
c153 0 262 -38 262 -249c-1 -171 -101 -265 -254 -210c-64 24 -180 60 -260 35c-122 -39 -94 -193 23 -193c39 0 81 15 147 44c85 39 266 96 344 -4z" />
    <glyph glyph-name="zero" unicode="0" horiz-adv-x="610" 
d="M583 278c3 -73 -37 -170 -94 -218c-56 -48 -142 -60 -215 -60c-169 0 -265 29 -272 222c-2 73 38 170 95 217c56 49 141 61 214 61c168 0 266 -29 272 -222zM514 331c10 78 -25 92 -54 88c-78 -10 -372 -113 -388 -250c-10 -78 24 -92 53 -88c78 10 373 113 389 250z" />
    <glyph glyph-name="one" unicode="1" horiz-adv-x="354" 
d="M167 500v0h162c-50 -53 -100 -153 -100 -250c0 -98 50 -197 100 -250h-308c50 53 100 151 100 250v7c-18 -14 -52 -26 -80 -27l-41 173c91 -9 140 49 167 97z" />
    <glyph glyph-name="two" unicode="2" horiz-adv-x="615" 
d="M534 209l56 -166c-53 -36 -133 -43 -209 -43c-143 0 -262 80 -325 0h-56c15 78 39 150 102 192c83 56 188 30 279 63c132 47 149 211 -61 117c-86 -38 -242 -96 -320 4l52 140c70 -90 287 -16 383 -16c108 0 155 -68 155 -134c0 -80 -50 -136 -140 -165
c-85 -28 -184 -19 -256 -34c-53 -11 -85 -37 -106 -74c32 20 68 30 110 34c108 11 270 -29 336 82z" />
    <glyph glyph-name="three" unicode="3" horiz-adv-x="615" 
d="M428 500v0c120 0 162 -69 162 -133c0 -55 -32 -94 -75 -117c43 -23 75 -62 75 -116c0 -65 -42 -134 -162 -134c-96 0 -306 74 -376 -16l-52 140c78 100 234 42 320 4c162 -73 221 -3 187 59c-12 22 -30 35 -51 43c-43 -8 -99 -8 -137 9c-14 6 -12 17 1 22
c38 17 93 17 136 9c21 8 39 22 51 43c34 62 -25 132 -187 59c-86 -38 -242 -95 -320 5l52 139c70 -90 280 -16 376 -16z" />
    <glyph glyph-name="four" unicode="4" horiz-adv-x="625" 
d="M601 411v0c-51 -44 -100 -126 -100 -206s49 -162 100 -205h-308c53 32 95 100 99 137h-214c-58 0 -104 -12 -152 -30l-26 70c208 65 217 323 217 323h238c-4 -32 -14 -61 -28 -89h174zM188 187v0h205v170c-54 -70 -134 -128 -205 -170z" />
    <glyph glyph-name="five" unicode="5" horiz-adv-x="615" 
d="M428 0c-96 0 -306 74 -376 -16l-52 139c78 100 234 43 320 5c162 -73 221 -3 187 59c-37 66 -214 121 -505 21c58 87 62 216 -2 292h204c-20 -14 -32 -31 -38 -46c25 29 64 46 123 46c96 0 179 -74 249 16l52 -140c-86 -110 -256 55 -356 54c-96 0 -105 -153 -9 -129
c173 42 365 32 365 -144c0 -69 -42 -157 -162 -157v0z" />
    <glyph glyph-name="six" unicode="6" horiz-adv-x="615" 
d="M140 340v0c-61 -33 -39 -67 10 -74c51 -7 155 19 211 30c89 17 228 -3 228 -119c0 -92 -82 -177 -289 -177c-200 0 -300 117 -300 250c0 132 100 250 300 250c116 0 229 -22 289 -58v-175c-113 82 -234 107 -330 102c-49 -2 -89 -13 -119 -29zM86 257v0
c-14 -44 2 -92 28 -119c68 -69 204 -66 277 -2c46 41 40 112 -36 98c-55 -11 -207 -56 -269 23z" />
    <glyph glyph-name="seven" unicode="7" horiz-adv-x="641" 
d="M449 0v0h-282c32 160 249 368 349 457c-122 -17 -283 -132 -379 -136c-52 -2 -102 11 -137 55l52 140c26 -34 62 -45 101 -45c109 -1 216 26 324 28c27 0 54 -1 81 -6l7 7h52c-231 -250 -216 -440 -168 -500z" />
    <glyph glyph-name="eight" unicode="8" horiz-adv-x="615" 
d="M454 273c82 -26 136 -72 136 -125c0 -82 -132 -148 -295 -148s-295 66 -295 148c0 53 54 99 135 125c-57 23 -94 59 -94 99c0 70 114 128 254 128s254 -58 254 -128c0 -40 -37 -76 -95 -99zM186 371c-16 -29 -22 -65 5 -73c61 -17 182 1 214 66c14 28 20 66 -7 73
c-65 19 -178 0 -212 -66zM442 157c12 29 14 64 -15 71c-64 17 -194 1 -246 -43c-24 -19 -38 -45 -41 -76c-3 -27 10 -38 23 -41c78 -20 243 -1 279 89z" />
    <glyph glyph-name="nine" unicode="9" horiz-adv-x="615" 
d="M449 159v0c61 33 39 68 -10 74c-51 7 -155 -19 -211 -30c-89 -17 -228 4 -228 119c0 93 82 178 289 178c200 0 300 -118 300 -250c0 -133 -100 -250 -300 -250c-116 0 -229 22 -289 57v176c113 -82 234 -107 330 -103c49 2 89 13 119 29zM503 242v0c14 45 -2 93 -28 119
c-68 70 -204 67 -277 3c-46 -41 -40 -113 36 -98c55 10 207 56 269 -24z" />
    <glyph glyph-name="exclam" unicode="!" horiz-adv-x="333" 
d="M308 500v0c-50 -53 -134 -200 -134 -298h-41c0 99 -83 245 -133 298h308zM154 175v0c-73 0 -133 -39 -133 -88c0 -48 60 -87 133 -87s132 39 132 87c0 49 -59 88 -132 88z" />
    <glyph glyph-name="quotedbl" unicode="&#x22;" horiz-adv-x="471" 
d="M133 584c34 0 66 -9 89 -24c24 15 56 24 90 24c55 0 101 -22 122 -53c7 -10 11 -22 11 -35c0 -80 -85 -142 -167 -164l-48 55c30 2 57 10 80 22c-26 0 -50 5 -70 14c-31 -44 -87 -77 -142 -91l-48 55c30 2 57 10 80 22c-72 1 -130 39 -130 87s59 88 133 88v0z" />
    <glyph glyph-name="numbersign" unicode="#" horiz-adv-x="491" 
d="M139 500h63l-16 -113c44 4 91 10 134 14l14 99h62l-13 -96c40 0 71 -5 83 -21l-23 -62c-11 14 -36 20 -69 21l-23 -164c56 3 100 -1 115 -21l-23 -61c-14 18 -52 23 -100 21l-16 -117h-63l16 113c-44 -4 -91 -10 -134 -14l-14 -99h-62l13 96c-41 -1 -72 4 -83 20l23 61
c11 -13 36 -19 69 -20l23 165c-56 -3 -101 -1 -115 19l23 62c14 -18 52 -22 100 -20l16 117v0zM178 328l-24 -169c43 3 90 9 134 13l24 169c-43 -3 -90 -9 -134 -13v0z" />
    <glyph glyph-name="colon" unicode=":" horiz-adv-x="251" 
d="M113 500c62 0 112 -33 112 -75c0 -41 -50 -74 -112 -74s-113 33 -113 74c0 42 51 75 113 75v0zM113 148c62 0 112 -33 112 -73c0 -42 -50 -75 -112 -75s-113 33 -113 75c0 40 51 73 113 73v0z" />
    <glyph glyph-name="semicolon" unicode=";" horiz-adv-x="251" 
d="M114 148c45 0 86 -18 103 -44c6 -10 9 -20 9 -31c0 -67 -72 -121 -143 -140l-41 47c27 2 49 9 68 20c-61 0 -110 33 -110 73c0 42 50 75 114 75v0zM114 500c62 0 112 -33 112 -74c0 -42 -50 -75 -112 -75c-64 0 -114 33 -114 75c0 41 50 74 114 74v0z" />
    <glyph glyph-name="dollar" unicode="$" horiz-adv-x="615" 
d="M52 -16l-52 140c58 74 173 61 264 34v63c-53 -9 -103 -19 -138 -18c-123 2 -155 135 -100 218c39 58 116 79 182 79c19 0 37 -2 56 -4v52h62v-64c33 -7 65 -13 98 -13c46 0 87 11 114 45l52 -139c-58 -75 -174 -62 -264 -35v-63c52 9 103 19 138 18
c110 -2 148 -111 113 -193c-32 -76 -118 -104 -196 -104c-18 0 -37 2 -55 5v-53h-62v64c-33 7 -65 13 -98 13c-46 0 -87 -10 -114 -45v0zM326 136c6 -3 12 -6 18 -8c44 -20 120 -27 149 20c14 22 12 50 -9 68c-32 27 -93 25 -158 16v-96v0zM264 365c-7 2 -13 5 -19 7
c-43 20 -119 27 -149 -20c-13 -22 -11 -49 10 -67c31 -28 92 -25 158 -16v96v0z" />
    <glyph glyph-name="percent" unicode="%" horiz-adv-x="736" 
d="M709 157c1 -41 -21 -96 -54 -123c-32 -27 -80 -34 -122 -34c-95 0 -150 16 -154 126c-1 42 21 96 54 123c32 28 80 35 122 35c95 0 150 -16 154 -127zM669 188c6 44 -14 52 -30 50c-44 -6 -211 -64 -220 -142c-6 -45 13 -53 30 -50c44 5 211 64 220 142zM495 500h62
l-343 -500h-63zM276 250c-32 -27 -81 -34 -122 -34c-95 0 -151 16 -154 126c-1 42 21 96 53 123c32 28 81 35 122 35c96 0 151 -17 154 -127c1 -41 -21 -96 -53 -123zM39 312c-5 -45 14 -53 30 -51c45 6 211 65 221 143c5 44 -14 52 -30 50c-45 -6 -211 -65 -221 -142z" />
    <glyph glyph-name="ampersand" unicode="&#x26;" horiz-adv-x="652" 
d="M435 737v0c-7 -17 -13 -38 -19 -60c83 -8 156 -27 201 -54v-174c-112 81 -233 106 -330 102c-51 -2 -157 -25 -174 -84c-12 -40 49 -74 107 -73c58 0 140 10 194 49v-149c-54 38 -136 48 -194 49c-58 0 -119 -33 -107 -73c17 -59 123 -82 174 -84c97 -4 218 21 330 102
v-175c-45 -26 -118 -45 -201 -53c6 -23 12 -43 19 -60h-180c6 17 13 37 19 59c-151 17 -274 105 -274 203c0 55 36 90 101 106c-66 17 -101 52 -101 107c0 97 123 185 274 203c-6 22 -13 42 -19 59h180z" />
    <glyph glyph-name="question" unicode="?" horiz-adv-x="586" 
d="M280 175c73 0 133 -39 133 -88c0 -48 -60 -87 -133 -87s-132 39 -132 87c0 49 59 88 132 88v0zM257 202c3 45 60 65 114 78c131 31 110 70 -6 86c-126 18 -263 -25 -365 -99v175c60 36 173 58 289 58c63 0 165 -11 224 -57c78 -60 58 -164 -44 -186
c-49 -11 -162 -29 -171 -55h-41v0z" />
    <glyph glyph-name="quotesingle" unicode="'" horiz-adv-x="292" 
d="M133 584c54 0 100 -21 121 -52c7 -11 11 -23 11 -35c0 -80 -85 -143 -167 -165l-48 55c30 3 57 11 80 22c-72 1 -130 40 -130 88s59 87 133 87v0z" />
    <glyph glyph-name="parenleft" unicode="(" horiz-adv-x="327" 
d="M301 737v0v-16c-91 0 -164 -158 -164 -352c0 -195 73 -353 164 -353v-16c-166 0 -301 165 -301 369c0 203 135 368 301 368z" />
    <glyph glyph-name="parenright" unicode=")" horiz-adv-x="327" 
d="M0 737c166 0 301 -165 301 -368c0 -204 -135 -369 -301 -369v16c91 0 164 158 164 353c0 194 -73 352 -164 352v16v0z" />
    <glyph glyph-name="asterisk" unicode="*" horiz-adv-x="549" 
d="M351 500v0c-25 -43 -46 -114 -56 -190c62 45 113 101 137 143c32 -54 59 -102 91 -156c-49 0 -122 -17 -193 -48c70 -29 144 -46 193 -47c-32 -53 -59 -101 -91 -155c-24 42 -75 97 -137 143c10 -76 31 -147 56 -190h-179c22 43 46 114 53 190
c-62 -46 -111 -101 -135 -143c-31 54 -59 102 -90 155c47 1 121 18 192 47c-71 31 -145 48 -192 48c31 54 59 102 90 156c24 -42 74 -98 135 -143c-7 76 -31 147 -53 190h179z" />
    <glyph glyph-name="plus" unicode="+" horiz-adv-x="524" 
d="M218 500h63v-219h219v-62h-219v-219h-63v219h-218v62h218v219v0z" />
    <glyph glyph-name="comma" unicode="," horiz-adv-x="290" 
d="M133 175c54 0 100 -21 121 -52c7 -11 11 -23 11 -35c0 -80 -85 -143 -167 -165l-48 55c30 3 57 11 80 22c-72 1 -130 40 -130 88s59 87 133 87v0z" />
    <glyph glyph-name="period" unicode="." horiz-adv-x="290" 
d="M133 175c73 0 132 -39 132 -88c0 -48 -59 -87 -132 -87c-74 0 -133 39 -133 87c0 49 59 88 133 88v0z" />
    <glyph glyph-name="hyphen" unicode="-" horiz-adv-x="526" 
d="M0 219v63h500v-63h-500v0z" />
    <glyph glyph-name="slash" unicode="/" horiz-adv-x="432" 
d="M343 500h63l-344 -500h-62l343 500v0z" />
    <glyph glyph-name="less" unicode="&#x3c;" horiz-adv-x="526" 
d="M0 219v62l500 175v-63l-411 -143l411 -144v-62l-500 175v0z" />
    <glyph glyph-name="equal" unicode="=" horiz-adv-x="526" 
d="M0 159v63h500v-63h-500v0zM0 279v63h500v-63h-500v0z" />
    <glyph glyph-name="greater" unicode="&#x3e;" horiz-adv-x="526" 
d="M500 219v0l-500 -175v62l410 144l-410 143v63l500 -175v-62z" />
    <glyph glyph-name="at" unicode="@" horiz-adv-x="978" 
d="M476 737c264 0 477 -165 477 -368c0 -204 -213 -369 -477 -369c-263 0 -476 165 -476 369c0 203 213 368 476 368zM476 38c184 0 333 148 333 331c0 182 -149 330 -333 330c-183 0 -332 -148 -332 -330c0 -183 149 -331 332 -331zM613 567c43 0 88 -14 103 -59
c8 -30 0 -69 -8 -98c-13 -47 -28 -93 -34 -141c-5 -39 -3 -90 46 -113h-230c38 17 62 51 69 88c-38 -57 -126 -88 -191 -88c-84 0 -136 40 -136 105c1 123 157 129 246 148c46 10 120 31 142 74c-76 -58 -324 -97 -387 -17l42 115c58 -74 250 -14 338 -14zM417 256
c98 -1 175 74 195 166c-54 -48 -159 -59 -224 -80c-83 -26 -45 -86 29 -86z" />
    <glyph glyph-name="space" unicode=" " horiz-adv-x="345" 
 />
    <glyph glyph-name="bracketleft" unicode="[" horiz-adv-x="154" 
d="M0 737h128v-62h-66v-613h66v-62h-128v737v0z" />
    <glyph glyph-name="backslash" unicode="\" horiz-adv-x="432" 
d="M62 500v0l344 -500h-63l-343 500h62z" />
    <glyph glyph-name="bracketright" unicode="]" horiz-adv-x="154" 
d="M128 737v0v-737h-128v62h66v613h-66v62h128z" />
    <glyph glyph-name="asciicircum" unicode="^" horiz-adv-x="436" 
d="M175 500h62l175 -500h-63l-143 410l-144 -410h-62l175 500v0z" />
    <glyph glyph-name="underscore" unicode="_" horiz-adv-x="491" 
d="M0 -83l23 62c48 -63 397 43 443 -20l-23 -62c-50 65 -398 -42 -443 20v0z" />
    <glyph glyph-name="asciitilde" unicode="~" horiz-adv-x="491" 
d="M0 229l23 61c48 -62 397 44 443 -20l-23 -61c-50 64 -398 -42 -443 20v0z" />
    <glyph glyph-name="braceright" unicode="}" horiz-adv-x="263" 
d="M238 369c-78 -35 70 -369 -238 -369v16c91 0 2 353 150 353c-148 0 -59 352 -150 352v16c308 0 160 -334 238 -368v0z" />
    <glyph glyph-name="bar" unicode="|" horiz-adv-x="88" 
d="M0 737h62v-737h-62v737v0z" />
    <glyph glyph-name="braceleft" unicode="{" horiz-adv-x="263" 
d="M0 369v0c78 34 -70 368 238 368v-16c-91 0 -2 -352 -151 -352c149 0 60 -353 151 -353v-16c-308 0 -160 334 -238 369z" />
    <glyph glyph-name="multiply" unicode="&#xd7;" horiz-adv-x="425" 
d="M0 405l44 44l155 -154l154 154l44 -44l-154 -154l154 -155l-44 -44l-154 154l-155 -154l-44 44l154 155l-154 154v0z" />
    <glyph glyph-name="Euro" unicode="&#x20ac;" horiz-adv-x="676" 
d="M291 500c96 0 235 -74 305 16l52 -140c-78 -100 -234 -42 -320 -4c-92 41 -160 15 -190 -33c86 11 190 37 219 -3l-23 -62c-31 40 -130 16 -214 5c0 -19 5 -38 14 -56c87 10 193 38 223 -3l-23 -61c-24 30 -88 23 -155 13c32 -23 77 -39 139 -42c96 -4 217 21 330 103
v-176c-61 -35 -173 -57 -290 -57c-156 0 -246 71 -282 159c-35 -2 -63 2 -76 20l23 61c8 -10 21 -16 37 -18c-2 17 -2 35 -1 52c-27 1 -48 6 -59 20l23 62c10 -12 27 -18 49 -20c30 91 107 164 219 164v0z" />
    <glyph glyph-name="yen" unicode="&#xa5;" horiz-adv-x="613" 
d="M293 276v0c99 0 178 116 36 224h257c-22 -23 0 -120 -42 -177c-17 -23 -41 -42 -69 -56h68v-63h-193c3 -19 8 -38 14 -57h179v-62h-154c17 -34 37 -64 58 -85h-308c21 22 41 51 58 85h-154v62h180c5 19 10 38 13 57h-193v63h69c-29 15 -53 33 -70 56
c-42 57 -20 154 -42 177h257c-142 -108 -63 -224 36 -224z" />
    <glyph glyph-name="quotedblleft" unicode="&#x201c;" horiz-adv-x="471" 
d="M312 332c-34 0 -66 9 -90 24c-23 -15 -55 -24 -89 -24c-55 0 -101 22 -122 53c-7 10 -11 22 -11 35c0 80 85 142 167 164l48 -55c-30 -2 -57 -11 -80 -22c26 0 50 -5 70 -14c31 44 87 77 142 91l48 -55c-30 -2 -57 -11 -80 -22c72 -1 130 -39 130 -87s-59 -88 -133 -88v0
z" />
    <glyph glyph-name="quoteleft" unicode="&#x2018;" horiz-adv-x="292" 
d="M133 332c-55 0 -101 22 -122 53c-7 10 -11 22 -11 35c0 80 85 142 167 164l48 -55c-30 -2 -57 -11 -80 -22c72 -1 130 -39 130 -87c0 -49 -59 -88 -132 -88v0z" />
    <glyph glyph-name="quoteright" unicode="&#x2019;" horiz-adv-x="292" 
d="M133 584c54 0 100 -21 121 -52c7 -11 11 -23 11 -35c0 -80 -85 -143 -167 -165l-48 55c30 3 57 11 80 22c-72 1 -130 40 -130 88s59 87 133 87z" />
    <glyph glyph-name="quotedblright" unicode="&#x201d;" horiz-adv-x="471" 
d="M133 584c34 0 66 -9 89 -24c24 15 56 24 90 24c55 0 101 -22 122 -53c7 -10 11 -22 11 -35c0 -80 -85 -142 -167 -164l-48 55c30 2 57 10 80 22c-26 0 -50 5 -70 14c-31 -44 -87 -77 -142 -91l-48 55c30 2 57 10 80 22c-72 1 -130 39 -130 87s59 88 133 88z" />
    <glyph glyph-name="grave" unicode="`" horiz-adv-x="323" 
d="M0 736h181l112 -269h-37l-256 269v0z" />
    <glyph glyph-name="agrave" unicode="&#xe0;" horiz-adv-x="619" 
d="M593 0v0h-279c45 21 74 62 83 107c-46 -70 -154 -107 -233 -107c-101 0 -165 49 -164 128c1 149 190 156 299 179c55 12 145 39 173 91c-93 -71 -395 -119 -472 -21l52 139c70 -89 304 -16 411 -16c52 0 106 -18 124 -72c10 -37 1 -84 -9 -120c-15 -57 -33 -112 -41 -171
c-6 -48 -3 -109 56 -137zM342 565c-41 27 -142 63 -107 117h102c-45 -21 4 -87 29 -117h-24v0zM462 323v0c-66 -59 -194 -71 -273 -97c-100 -32 -54 -104 35 -105c120 -1 213 91 238 202z" />
    <glyph glyph-name="aacute" unicode="&#xe1;" horiz-adv-x="619" 
d="M593 0v0h-279c45 21 74 62 83 107c-46 -70 -154 -107 -233 -107c-101 0 -165 49 -164 128c1 149 190 156 299 179c55 12 145 39 173 91c-93 -71 -395 -119 -472 -21l52 139c70 -89 304 -16 411 -16c52 0 106 -18 124 -72c10 -37 1 -84 -9 -120c-15 -57 -33 -112 -41 -171
c-6 -48 -3 -109 56 -137zM251 565v0h-23c25 30 73 96 28 117h103c35 -54 -67 -90 -108 -117zM462 323v0c-66 -59 -194 -71 -273 -97c-100 -32 -54 -104 35 -105c120 -1 213 91 238 202z" />
    <glyph glyph-name="acircumflex" unicode="&#xe2;" horiz-adv-x="619" 
d="M593 0v0h-279c45 21 74 62 83 107c-46 -70 -154 -107 -233 -107c-101 0 -165 49 -164 128c1 149 190 156 299 179c55 12 145 39 173 91c-93 -71 -395 -119 -472 -21l52 139c70 -89 304 -16 411 -16c52 0 106 -18 124 -72c10 -37 1 -84 -9 -120c-15 -57 -33 -112 -41 -171
c-6 -48 -3 -109 56 -137zM161 565c0 0 108 52 121 99h30c13 -47 120 -99 120 -99h-88c-17 14 -34 32 -47 51c-14 -19 -31 -37 -47 -51h-89v0zM462 323v0c-66 -59 -194 -71 -273 -97c-100 -32 -54 -104 35 -105c120 -1 213 91 238 202z" />
    <glyph glyph-name="atilde" unicode="&#xe3;" horiz-adv-x="619" 
d="M593 0v0h-279c45 21 74 62 83 107c-46 -70 -154 -107 -233 -107c-101 0 -165 49 -164 128c1 149 190 156 299 179c55 12 145 39 173 91c-93 -71 -395 -119 -472 -21l52 139c70 -89 304 -16 411 -16c52 0 106 -18 124 -72c10 -37 1 -84 -9 -120c-15 -57 -33 -112 -41 -171
c-6 -48 -3 -109 56 -137zM213 565c-15 1 -30 7 -40 21l24 63c6 -8 14 -13 22 -15c60 -14 114 17 161 15c16 -1 30 -7 40 -21l-24 -63c-6 8 -14 13 -22 15c-60 14 -113 -17 -161 -15v0zM462 323v0c-66 -59 -194 -71 -273 -97c-100 -32 -54 -104 35 -105
c120 -1 213 91 238 202z" />
    <glyph glyph-name="adieresis" unicode="&#xe4;" horiz-adv-x="619" 
d="M593 0v0h-279c45 21 74 62 83 107c-46 -70 -154 -107 -233 -107c-101 0 -165 49 -164 128c1 149 190 156 299 179c55 12 145 39 173 91c-93 -71 -395 -119 -472 -21l52 139c70 -89 304 -16 411 -16c52 0 106 -18 124 -72c10 -37 1 -84 -9 -120c-15 -57 -33 -112 -41 -171
c-6 -48 -3 -109 56 -137zM219 651c36 0 65 -19 65 -43s-29 -43 -65 -43s-65 19 -65 43s29 43 65 43v0zM374 651c36 0 65 -19 65 -43s-29 -43 -65 -43s-65 19 -65 43s29 43 65 43v0zM462 323v0c-66 -59 -194 -71 -273 -97c-100 -32 -54 -104 35 -105c120 -1 213 91 238 202z
" />
    <glyph glyph-name="aring" unicode="&#xe5;" horiz-adv-x="619" 
d="M593 0v0h-279c45 21 74 62 83 107c-46 -70 -154 -107 -233 -107c-101 0 -165 49 -164 128c1 149 190 156 299 179c55 12 145 39 173 91c-93 -71 -395 -119 -472 -21l52 139c70 -89 304 -16 411 -16c52 0 106 -18 124 -72c10 -37 1 -84 -9 -120c-15 -57 -33 -112 -41 -171
c-6 -48 -3 -109 56 -137zM297 715c62 0 113 -33 113 -75c0 -41 -51 -75 -113 -75c-63 0 -114 34 -114 75c0 42 51 75 114 75v0zM297 696c-31 0 -56 -25 -56 -56c0 -30 25 -55 56 -55c30 0 55 25 55 55c0 31 -25 56 -55 56v0zM462 323v0c-66 -59 -194 -71 -273 -97
c-100 -32 -54 -104 35 -105c120 -1 213 91 238 202z" />
    <glyph glyph-name="ae" unicode="&#xe6;" horiz-adv-x="1125" 
d="M759 130c96 -4 217 21 330 103v-176c-60 -35 -173 -57 -290 -57c-149 0 -243 66 -281 155c-13 -9 -26 -18 -40 -27c-89 -60 -202 -128 -314 -128c-101 0 -165 49 -164 128c1 149 190 156 299 179c55 12 145 39 173 91c-93 -71 -395 -119 -472 -21l52 139
c70 -89 304 -16 411 -16c50 0 102 -16 122 -66c50 41 121 66 214 66c208 0 290 -85 290 -177c0 -88 -80 -121 -158 -124c-132 -6 -184 70 -330 3c33 -40 90 -69 158 -72zM224 121c120 -1 213 91 238 202c-66 -59 -194 -71 -273 -97c-100 -32 -54 -104 35 -105zM613 362
c-36 -37 -45 -77 -36 -113c77 37 164 54 278 18c67 -21 87 52 36 97c-73 64 -210 67 -278 -2z" />
    <glyph glyph-name="ccedilla" unicode="&#xe7;" horiz-adv-x="618" 
d="M232 500c97 0 236 -74 306 16l52 -140c-78 -100 -234 -42 -320 -4c-236 106 -312 -229 -10 -242c96 -4 217 21 330 103v-176c-56 -33 -157 -54 -264 -57v0c-8 -23 -42 -29 -63 -32c-42 -5 -27 -44 24 -46c26 -1 60 5 91 28v-57c-17 -10 -48 -16 -80 -16
c-31 0 -67 6 -83 33c-17 30 -9 72 29 82c14 4 31 3 44 8c-404 9 -346 500 -56 500v0z" />
    <glyph glyph-name="egrave" unicode="&#xe8;" horiz-adv-x="618" 
d="M140 160c30 -17 70 -28 120 -30c96 -4 217 21 330 103v-176c-61 -35 -173 -57 -290 -57c-200 0 -300 118 -300 250s100 250 300 250c208 0 290 -85 290 -177c0 -116 -140 -136 -228 -119c-56 10 -161 37 -212 30c-49 -7 -71 -41 -10 -74v0zM340 565
c-41 27 -142 63 -107 117h102c-45 -21 4 -87 29 -117h-24v0zM86 242c62 80 215 35 270 24c75 -14 82 57 35 98c-72 64 -209 67 -277 -2c-26 -27 -41 -75 -28 -120v0z" />
    <glyph glyph-name="eacute" unicode="&#xe9;" horiz-adv-x="618" 
d="M140 160v0c-61 33 -39 67 10 74c51 7 156 -20 212 -30c88 -17 228 3 228 119c0 92 -82 177 -290 177c-200 0 -300 -118 -300 -250s100 -250 300 -250c117 0 229 22 290 57v176c-113 -82 -234 -107 -330 -103c-50 2 -90 13 -120 30zM250 565v0h-24c25 30 73 96 28 117h103
c35 -54 -67 -90 -107 -117zM86 242v0c-13 45 2 93 28 120c68 69 205 66 277 2c47 -41 40 -112 -35 -98c-55 11 -208 56 -270 -24z" />
    <glyph glyph-name="ecircumflex" unicode="&#xea;" horiz-adv-x="618" 
d="M140 160c30 -17 70 -28 120 -30c96 -4 217 21 330 103v-176c-61 -35 -173 -57 -290 -57c-200 0 -300 118 -300 250s100 250 300 250c208 0 290 -85 290 -177c0 -116 -140 -136 -228 -119c-56 10 -161 37 -212 30c-49 -7 -71 -41 -10 -74v0zM159 565c0 0 108 52 121 99h30
c13 -47 120 -99 121 -99h-89c-16 14 -34 32 -47 51c-13 -19 -31 -37 -47 -51h-89v0zM86 242c62 80 215 35 270 24c75 -14 82 57 35 98c-72 64 -209 67 -277 -2c-26 -27 -41 -75 -28 -120v0z" />
    <glyph glyph-name="edieresis" unicode="&#xeb;" horiz-adv-x="618" 
d="M140 160c30 -17 70 -28 120 -30c96 -4 217 21 330 103v-176c-61 -35 -173 -57 -290 -57c-200 0 -300 118 -300 250s100 250 300 250c208 0 290 -85 290 -177c0 -116 -140 -136 -228 -119c-56 10 -161 37 -212 30c-49 -7 -71 -41 -10 -74v0zM217 651c36 0 65 -19 65 -43
s-29 -43 -65 -43s-65 19 -65 43s29 43 65 43v0zM372 651c36 0 66 -19 66 -43s-30 -43 -66 -43s-65 19 -65 43s29 43 65 43v0zM86 242c62 80 215 35 270 24c75 -14 82 57 35 98c-72 64 -209 67 -277 -2c-26 -27 -41 -75 -28 -120v0z" />
    <glyph glyph-name="igrave" unicode="&#xec;" horiz-adv-x="335" 
d="M308 500v0c-50 -53 -100 -153 -100 -250s50 -197 100 -250h-308c50 53 100 151 100 250s-50 197 -100 250h308zM199 565c-40 27 -142 63 -107 117h103c-45 -21 3 -87 28 -117h-24v0z" />
    <glyph glyph-name="iacute" unicode="&#xed;" horiz-adv-x="335" 
d="M308 500v0c-50 -53 -100 -153 -100 -250s50 -197 100 -250h-308c50 53 100 151 100 250s-50 197 -100 250h308zM109 565v0h-24c25 30 73 96 28 117h103c35 -54 -67 -90 -107 -117z" />
    <glyph glyph-name="icircumflex" unicode="&#xee;" horiz-adv-x="335" 
d="M308 500v0c-50 -53 -100 -153 -100 -250s50 -197 100 -250h-308c50 53 100 151 100 250s-50 197 -100 250h308zM18 565c1 0 108 52 121 99h30c13 -47 120 -99 121 -99h-89c-16 14 -34 32 -47 51c-13 -19 -31 -37 -47 -51h-89v0z" />
    <glyph glyph-name="idieresis" unicode="&#xef;" horiz-adv-x="335" 
d="M308 500v0c-50 -53 -100 -153 -100 -250s50 -197 100 -250h-308c50 53 100 151 100 250s-50 197 -100 250h308zM76 651c36 0 66 -19 66 -43s-30 -43 -66 -43s-65 19 -65 43s29 43 65 43v0zM232 651c36 0 65 -19 65 -43s-29 -43 -65 -43s-66 19 -66 43s30 43 66 43v0z" />
    <glyph glyph-name="eth" unicode="&#xf0;" horiz-adv-x="615" 
d="M581 277c2 -73 -37 -169 -94 -217s-143 -60 -215 -60c-168 0 -266 28 -272 223c-2 73 37 169 94 217c56 48 142 60 215 60c168 0 266 -28 272 -223zM511 331c10 78 -24 93 -53 89c-79 -11 -372 -114 -389 -251c-9 -78 25 -93 53 -89c79 11 372 114 389 251zM241 565
l-14 14l49 50l-49 49l14 14l49 -49l50 49l14 -14l-50 -49l50 -50l-14 -14l-50 49z" />
    <glyph glyph-name="ntilde" unicode="&#xf1;" horiz-adv-x="642" 
d="M480 500v0c78 0 141 -36 136 -121c-2 -24 -8 -49 -13 -71c-16 -57 -34 -112 -41 -171c-7 -48 -4 -109 56 -137h-257c-77 117 33 186 115 255c86 71 109 130 -19 142c-87 9 -200 -19 -232 -93c-16 -37 -19 -81 -9 -125c16 -73 54 -139 92 -179h-308c50 53 100 153 100 250
s-50 197 -100 250h308c-18 -19 -36 -44 -52 -73c80 73 197 73 224 73zM225 565c-15 1 -30 7 -39 21l23 63c7 -8 14 -13 23 -15c59 -14 113 17 161 15c15 -1 30 -7 39 -21l-23 -63c-7 8 -14 13 -23 15c-59 14 -113 -17 -161 -15v0z" />
    <glyph glyph-name="ograve" unicode="&#xf2;" horiz-adv-x="608" 
d="M336 565c-41 27 -143 63 -108 117h103c-45 -21 3 -87 29 -117h-24zM581 277c2 -73 -37 -169 -94 -217s-143 -60 -215 -60c-168 0 -266 28 -272 223c-2 73 37 169 94 217c56 48 142 60 215 60c168 0 266 -28 272 -223zM511 331c10 78 -24 93 -53 89
c-79 -11 -372 -114 -389 -251c-9 -78 25 -93 53 -89c79 11 372 114 389 251z" />
    <glyph glyph-name="oacute" unicode="&#xf3;" horiz-adv-x="608" 
d="M245 565h-24c25 30 74 96 29 117h102c35 -54 -66 -90 -107 -117zM581 277c2 -73 -37 -169 -94 -217s-143 -60 -215 -60c-168 0 -266 28 -272 223c-2 73 37 169 94 217c56 48 142 60 215 60c168 0 266 -28 272 -223zM511 331c10 78 -24 93 -53 89
c-79 -11 -372 -114 -389 -251c-9 -78 25 -93 53 -89c79 11 372 114 389 251z" />
    <glyph glyph-name="ocircumflex" unicode="&#xf4;" horiz-adv-x="608" 
d="M581 277c2 -73 -37 -169 -94 -217s-143 -60 -215 -60c-168 0 -266 28 -272 223c-2 73 37 169 94 217c56 48 142 60 215 60c168 0 266 -28 272 -223zM511 331c10 78 -24 93 -53 89c-79 -11 -372 -114 -389 -251c-9 -78 25 -93 53 -89c79 11 372 114 389 251zM290 616
c-13 -19 -30 -37 -47 -51h-88s107 52 120 99h30c13 -47 121 -99 121 -99h-89c-16 14 -33 32 -47 51z" />
    <glyph glyph-name="otilde" unicode="&#xf5;" horiz-adv-x="608" 
d="M207 565c-16 1 -30 7 -40 21l24 63c6 -8 14 -13 22 -15c60 -14 113 17 161 15c16 -1 30 -7 40 -21l-24 -63c-6 8 -14 13 -22 15c-60 14 -114 -17 -161 -15zM581 277c2 -73 -37 -169 -94 -217s-143 -60 -215 -60c-168 0 -266 28 -272 223c-2 73 37 169 94 217
c56 48 142 60 215 60c168 0 266 -28 272 -223zM511 331c10 78 -24 93 -53 89c-79 -11 -372 -114 -389 -251c-9 -78 25 -93 53 -89c79 11 372 114 389 251z" />
    <glyph glyph-name="odieresis" unicode="&#xf6;" horiz-adv-x="608" 
d="M368 565c-36 0 -65 19 -65 43s29 43 65 43s65 -19 65 -43s-29 -43 -65 -43zM581 277c2 -73 -37 -169 -94 -217s-143 -60 -215 -60c-168 0 -266 28 -272 223c-2 73 37 169 94 217c56 48 142 60 215 60c168 0 266 -28 272 -223zM511 331c10 78 -24 93 -53 89
c-79 -11 -372 -114 -389 -251c-9 -78 25 -93 53 -89c79 11 372 114 389 251zM213 565c-36 0 -65 19 -65 43s29 43 65 43s65 -19 65 -43s-29 -43 -65 -43z" />
    <glyph glyph-name="divide" unicode="&#xf7;" horiz-adv-x="535" 
d="M250 588c73 0 133 -40 133 -88s-60 -87 -133 -87s-133 39 -133 87s60 88 133 88v0zM0 263v62h500v-62h-500v0zM250 175c73 0 133 -39 133 -87c0 -49 -60 -88 -133 -88s-133 39 -133 88c0 48 60 87 133 87v0z" />
    <glyph glyph-name="oslash" unicode="&#xf8;" horiz-adv-x="608" 
d="M581 277c2 -73 -37 -169 -94 -217s-143 -60 -215 -60c-44 0 -83 2 -117 8l-5 -8h-63l16 23c-64 27 -100 84 -103 200c-2 73 37 169 94 217c56 48 142 60 215 60c44 0 83 -2 116 -8l6 8h63l-16 -23c63 -27 99 -84 103 -200zM145 85l212 307c-116 -41 -275 -123 -288 -223
c-9 -78 25 -93 53 -89c7 1 14 3 23 5zM511 331c10 78 -24 93 -53 89c-6 -1 -14 -3 -23 -5l-211 -307c116 41 275 123 287 223z" />
    <glyph glyph-name="ugrave" unicode="&#xf9;" horiz-adv-x="641" 
d="M138 0v0c-78 0 -141 36 -136 121c2 24 8 49 13 71c16 57 34 113 41 171c7 48 4 109 -56 137h257c77 -117 -33 -186 -115 -255c-86 -71 -109 -129 19 -141c87 -9 200 18 232 92c16 37 19 81 9 125c-16 73 -54 139 -92 179h308c-50 -53 -100 -153 -100 -250
s50 -197 100 -250h-308c18 19 36 44 52 73c-80 -73 -197 -73 -224 -73zM354 565c-40 27 -142 63 -107 117h103c-45 -21 3 -87 28 -117h-24v0z" />
    <glyph glyph-name="uacute" unicode="&#xfa;" horiz-adv-x="641" 
d="M138 0v0c-78 0 -141 36 -136 121c2 24 8 49 13 71c16 57 34 113 41 171c7 48 4 109 -56 137h257c77 -117 -33 -186 -115 -255c-86 -71 -109 -129 19 -141c87 -9 200 18 232 92c16 37 19 81 9 125c-16 73 -54 139 -92 179h308c-50 -53 -100 -153 -100 -250
s50 -197 100 -250h-308c18 19 36 44 52 73c-80 -73 -197 -73 -224 -73zM264 565v0h-24c25 30 73 96 28 117h103c35 -54 -67 -90 -107 -117z" />
    <glyph glyph-name="ucircumflex" unicode="&#xfb;" horiz-adv-x="641" 
d="M138 0v0c-78 0 -141 36 -136 121c2 24 8 49 13 71c16 57 34 113 41 171c7 48 4 109 -56 137h257c77 -117 -33 -186 -115 -255c-86 -71 -109 -129 19 -141c87 -9 200 18 232 92c16 37 19 81 9 125c-16 73 -54 139 -92 179h308c-50 -53 -100 -153 -100 -250
s50 -197 100 -250h-308c18 19 36 44 52 73c-80 -73 -197 -73 -224 -73zM173 565c1 0 108 52 121 99h30c13 -47 120 -99 121 -99h-89c-16 14 -34 32 -47 51c-13 -19 -31 -37 -47 -51h-89v0z" />
    <glyph glyph-name="udieresis" unicode="&#xfc;" horiz-adv-x="641" 
d="M138 0v0c-78 0 -141 36 -136 121c2 24 8 49 13 71c16 57 34 113 41 171c7 48 4 109 -56 137h257c77 -117 -33 -186 -115 -255c-86 -71 -109 -129 19 -141c87 -9 200 18 232 92c16 37 19 81 9 125c-16 73 -54 139 -92 179h308c-50 -53 -100 -153 -100 -250
s50 -197 100 -250h-308c18 19 36 44 52 73c-80 -73 -197 -73 -224 -73zM231 651c36 0 66 -19 66 -43s-30 -43 -66 -43s-65 19 -65 43s29 43 65 43v0zM387 651c36 0 65 -19 65 -43s-29 -43 -65 -43s-66 19 -66 43s30 43 66 43v0z" />
    <glyph glyph-name="yacute" unicode="&#xfd;" horiz-adv-x="639" 
d="M51 -255v0c43 55 88 49 153 43c75 -8 167 -26 223 -26c153 0 181 90 172 230c-7 112 -41 238 -48 308c-9 91 2 169 65 200h-308c27 -29 49 -66 68 -108c28 -65 49 -156 2 -218c-43 -58 -141 -78 -219 -71c-128 13 -105 70 -19 142c82 68 192 138 115 255h-257
c60 -28 63 -90 56 -137c-7 -59 -25 -115 -41 -171c-5 -22 -11 -47 -13 -71c-5 -85 58 -121 136 -121c119 0 251 59 308 168c13 -57 23 -116 26 -171c8 -120 -7 -185 -56 -177c-112 18 -190 148 -334 116c-31 -7 -59 -22 -81 -51zM262 565v0h-24c25 29 73 95 28 116h103
c35 -53 -67 -89 -107 -116z" />
    <glyph glyph-name="ydieresis" unicode="&#xff;" horiz-adv-x="639" 
d="M52 -255l-52 140c22 29 50 44 81 51c144 32 222 -98 334 -116c49 -8 64 57 56 177c-3 55 -13 114 -26 171c-57 -109 -189 -168 -308 -168c-78 0 -141 36 -136 121c2 24 8 49 13 71c16 56 34 112 41 171c7 47 4 109 -56 137h257c77 -117 -33 -187 -115 -255
c-86 -72 -109 -129 19 -142c78 -7 176 13 219 71c47 62 26 153 -2 218c-19 42 -41 79 -68 108h308c-63 -31 -74 -109 -65 -200c7 -70 41 -196 48 -308c9 -140 -19 -230 -172 -230c-56 0 -148 18 -223 26c-65 6 -110 12 -153 -43v0zM230 651c36 0 66 -19 66 -43
s-30 -43 -66 -43s-65 19 -65 43s29 43 65 43v0zM386 651c36 0 65 -19 65 -43s-29 -43 -65 -43s-66 19 -66 43s30 43 66 43v0z" />
    <glyph glyph-name="Agrave" unicode="&#xc0;" horiz-adv-x="685" 
d="M194 271c45 -1 206 83 258 22c13 82 30 165 39 247c-93 -99 -243 -168 -297 -269v0zM376 803c-40 27 -142 63 -107 117h103c-45 -21 3 -87 28 -117h-24v0zM416 206c-56 46 -221 -10 -239 -80c-10 -42 16 -97 45 -126h-211c-14 93 -25 219 39 299c81 101 253 183 315 268
c-77 -25 -196 -50 -247 -45c-44 4 -83 20 -110 54l51 178c69 -88 378 -16 482 -14c119 2 131 -93 116 -210c-13 -106 -37 -211 -50 -317c-10 -79 0 -165 47 -213h-211c-22 63 11 174 -27 206v0z" />
    <glyph glyph-name="Aacute" unicode="&#xc1;" horiz-adv-x="685" 
d="M194 271v0c54 101 204 170 297 269c-9 -82 -26 -165 -39 -247c-52 61 -213 -23 -258 -22zM335 803v0h-24c25 30 74 96 29 117h102c36 -54 -66 -90 -107 -117zM416 206v0c38 -32 5 -143 27 -206h211c-47 48 -57 134 -47 213c13 106 37 211 50 317c15 117 3 212 -116 210
c-104 -2 -413 -74 -482 14l-51 -178c27 -34 66 -50 110 -54c51 -5 170 20 247 45c-62 -85 -234 -167 -315 -268c-64 -80 -53 -206 -39 -299h211c-29 29 -55 84 -45 126c18 70 183 126 239 80z" />
    <glyph glyph-name="Acircumflex" unicode="&#xc2;" horiz-adv-x="685" 
d="M194 271c45 -1 206 83 258 22c13 82 30 165 39 247c-93 -99 -243 -168 -297 -269v0zM231 803c0 0 108 51 120 99h31c12 -48 120 -99 120 -99h-88c-17 14 -34 32 -47 51c-14 -19 -31 -37 -48 -51h-88v0zM416 206c-56 46 -221 -10 -239 -80c-10 -42 16 -97 45 -126h-211
c-14 93 -25 219 39 299c81 101 253 183 315 268c-77 -25 -196 -50 -247 -45c-44 4 -83 20 -110 54l51 178c69 -88 378 -16 482 -14c119 2 131 -93 116 -210c-13 -106 -37 -211 -50 -317c-10 -79 0 -165 47 -213h-211c-22 63 11 174 -27 206v0z" />
    <glyph glyph-name="Atilde" unicode="&#xc3;" horiz-adv-x="685" 
d="M194 271c45 -1 206 83 258 22c13 82 30 165 39 247c-93 -99 -243 -168 -297 -269v0zM284 803c-15 1 -30 7 -39 21l23 63c7 -8 14 -13 23 -15c59 -14 113 17 161 15c15 -1 30 -7 39 -21l-23 -63c-7 8 -15 13 -23 15c-59 14 -113 -17 -161 -15v0zM416 206
c-56 46 -221 -10 -239 -80c-10 -42 16 -97 45 -126h-211c-14 93 -25 219 39 299c81 101 253 183 315 268c-77 -25 -196 -50 -247 -45c-44 4 -83 20 -110 54l51 178c69 -88 378 -16 482 -14c119 2 131 -93 116 -210c-13 -106 -37 -211 -50 -317c-10 -79 0 -165 47 -213h-211
c-22 63 11 174 -27 206v0z" />
    <glyph glyph-name="Adieresis" unicode="&#xc4;" horiz-adv-x="685" 
d="M194 271c45 -1 206 83 258 22c13 82 30 165 39 247c-93 -99 -243 -168 -297 -269v0zM263 889c36 0 65 -19 65 -43s-29 -43 -65 -43s-65 19 -65 43s29 43 65 43v0zM418 889c36 0 65 -19 65 -43s-29 -43 -65 -43s-65 19 -65 43s29 43 65 43v0zM416 206
c-56 46 -221 -10 -239 -80c-10 -42 16 -97 45 -126h-211c-14 93 -25 219 39 299c81 101 253 183 315 268c-77 -25 -196 -50 -247 -45c-44 4 -83 20 -110 54l51 178c69 -88 378 -16 482 -14c119 2 131 -93 116 -210c-13 -106 -37 -211 -50 -317c-10 -79 0 -165 47 -213h-211
c-22 63 11 174 -27 206v0z" />
    <glyph glyph-name="Aring" unicode="&#xc5;" horiz-adv-x="685" 
d="M194 271c45 -1 206 83 258 22c13 82 30 165 39 247c-93 -99 -243 -168 -297 -269v0zM349 953c63 0 114 -33 114 -75c0 -41 -51 -75 -114 -75s-113 34 -113 75c0 42 50 75 113 75v0zM349 934c-30 0 -55 -25 -55 -56c0 -30 25 -55 55 -55c31 0 56 25 56 55
c0 31 -25 56 -56 56v0zM416 206c-56 46 -221 -10 -239 -80c-10 -42 16 -97 45 -126h-211c-14 93 -25 219 39 299c81 101 253 183 315 268c-77 -25 -196 -50 -247 -45c-44 4 -83 20 -110 54l51 178c69 -88 378 -16 482 -14c119 2 131 -93 116 -210
c-13 -106 -37 -211 -50 -317c-10 -79 0 -165 47 -213h-211c-22 63 11 174 -27 206v0z" />
    <glyph glyph-name="AE" unicode="&#xc6;" horiz-adv-x="1254" 
d="M194 271c45 -1 206 83 258 22c13 82 30 165 39 247c-93 -99 -243 -168 -297 -269v0zM905 738c72 0 121 -32 172 -28c33 2 65 13 89 44l52 -178c-27 -34 -67 -50 -110 -54c-113 -11 -196 62 -310 54c-71 -5 -127 -61 -152 -129c32 10 69 4 103 -3c84 -16 178 -43 231 26
l52 -140c-78 -100 -234 -43 -320 -4c-46 21 -87 3 -60 -47c23 -44 67 -79 135 -94c139 -29 336 24 431 119v-224c-68 -41 -214 -80 -318 -80c-126 0 -236 46 -296 150c1 -48 38 -124 85 -150h-246c-22 63 11 174 -27 206c-56 46 -221 -10 -239 -80c-10 -42 16 -97 45 -126
h-211c-14 93 -25 219 39 299c81 101 253 183 315 268c-77 -25 -196 -50 -247 -45c-44 4 -83 20 -110 54l51 178c69 -88 378 -16 482 -14c78 1 110 -40 119 -101c66 65 156 99 245 99v0z" />
    <glyph glyph-name="Ccedilla" unicode="&#xc7;" horiz-adv-x="691" 
d="M352 737c72 0 121 -32 172 -28c33 2 65 13 89 44l52 -178c-27 -34 -67 -50 -110 -54c-113 -11 -196 62 -310 54c-177 -12 -261 -338 -11 -391c139 -29 336 24 431 119v-224c-64 -38 -196 -75 -298 -80v0c-9 -23 -43 -29 -64 -32c-42 -5 -26 -44 24 -46c26 -1 60 6 91 28
v-57c-17 -9 -48 -15 -80 -15c-31 0 -67 5 -83 33c-17 29 -9 71 29 81c14 4 31 3 45 8c-184 7 -329 116 -329 365c0 245 178 373 352 373v0z" />
    <glyph glyph-name="Egrave" unicode="&#xc8;" 
d="M352 738c72 0 121 -32 172 -28c33 2 65 13 89 44l52 -178c-27 -34 -67 -50 -110 -54c-113 -11 -196 62 -310 54c-71 -5 -127 -61 -153 -129c33 10 70 4 104 -3c84 -16 178 -43 231 26l52 -140c-78 -100 -234 -43 -320 -4c-47 21 -87 3 -60 -47c23 -44 66 -79 135 -94
c139 -29 336 24 431 119v-224c-68 -41 -214 -80 -318 -80c-193 0 -347 108 -347 365c0 245 178 373 352 373v0zM428 803c-40 27 -142 63 -107 117h103c-45 -21 3 -87 28 -117h-24v0z" />
    <glyph glyph-name="Eacute" unicode="&#xc9;" 
d="M352 738v0c-174 0 -352 -128 -352 -373c0 -257 154 -365 347 -365c104 0 250 39 318 80v224c-95 -95 -292 -148 -431 -119c-69 15 -112 50 -135 94c-27 50 13 68 60 47c86 -39 242 -96 320 4l-52 140c-53 -69 -147 -42 -231 -26c-34 7 -71 13 -104 3
c26 68 82 124 153 129c114 8 197 -65 310 -54c43 4 83 20 110 54l-52 178c-24 -31 -56 -42 -89 -44c-51 -4 -100 28 -172 28zM344 803v0h-24c26 30 74 96 29 117h103c35 -54 -67 -90 -108 -117z" />
    <glyph glyph-name="Ecircumflex" unicode="&#xca;" 
d="M242 803c0 0 108 51 121 99h30c12 -48 120 -99 120 -99h-88c-17 14 -34 32 -47 51c-14 -19 -31 -37 -47 -51h-89v0zM352 738c72 0 121 -32 172 -28c33 2 65 13 89 44l52 -178c-27 -34 -67 -50 -110 -54c-113 -11 -196 62 -310 54c-71 -5 -127 -61 -153 -129
c33 10 70 4 104 -3c84 -16 178 -43 231 26l52 -140c-78 -100 -234 -43 -320 -4c-47 21 -87 3 -60 -47c23 -44 66 -79 135 -94c139 -29 336 24 431 119v-224c-68 -41 -214 -80 -318 -80c-193 0 -347 108 -347 365c0 245 178 373 352 373v0z" />
    <glyph glyph-name="Edieresis" unicode="&#xcb;" 
d="M352 738c72 0 121 -32 172 -28c33 2 65 13 89 44l52 -178c-27 -34 -67 -50 -110 -54c-113 -11 -196 62 -310 54c-71 -5 -127 -61 -153 -129c33 10 70 4 104 -3c84 -16 178 -43 231 26l52 -140c-78 -100 -234 -43 -320 -4c-47 21 -87 3 -60 -47c23 -44 66 -79 135 -94
c139 -29 336 24 431 119v-224c-68 -41 -214 -80 -318 -80c-193 0 -347 108 -347 365c0 245 178 373 352 373v0zM286 889c36 0 65 -19 65 -43s-29 -43 -65 -43s-65 19 -65 43s29 43 65 43v0zM441 889c36 0 65 -19 65 -43s-29 -43 -65 -43s-65 19 -65 43s29 43 65 43v0z" />
    <glyph glyph-name="Igrave" unicode="&#xcc;" horiz-adv-x="257" 
d="M220 738c10 -62 12 -133 3 -208c-13 -106 -37 -211 -50 -317c-10 -79 0 -165 47 -213h-211c-10 63 -13 134 -3 210c13 104 35 207 48 311c11 80 2 169 -45 217h211v0zM160 803c-41 27 -143 63 -108 117h103c-45 -21 4 -87 29 -117h-24v0z" />
    <glyph glyph-name="Iacute" unicode="&#xcd;" horiz-adv-x="257" 
d="M220 738v0h-211c47 -48 56 -137 45 -217c-13 -104 -35 -207 -48 -311c-10 -76 -7 -147 3 -210h211c-47 48 -57 134 -47 213c13 106 37 211 50 317c9 75 7 146 -3 208zM69 803v0h-24c25 30 74 96 29 117h102c36 -54 -66 -90 -107 -117z" />
    <glyph glyph-name="Icircumflex" unicode="&#xce;" horiz-adv-x="257" 
d="M9 738h211c10 -62 12 -133 3 -208c-13 -106 -37 -211 -50 -317c-10 -79 0 -165 47 -213h-211c-10 63 -13 134 -3 210c13 104 35 207 48 311c11 80 2 169 -45 217zM114 854c-13 -19 -30 -37 -47 -51h-88s108 51 120 99h31c12 -48 120 -99 120 -99h-88
c-17 14 -34 32 -48 51z" />
    <glyph glyph-name="Idieresis" unicode="&#xcf;" horiz-adv-x="257" 
d="M219 738c11 -62 13 -133 3 -208c-13 -106 -37 -211 -50 -317c-9 -79 1 -165 47 -213h-211c-9 63 -12 134 -3 210c13 104 35 207 49 311c10 80 2 169 -46 217h211v0zM36 889c36 0 66 -19 66 -43s-30 -43 -66 -43s-65 19 -65 43s29 43 65 43v0zM191 889c36 0 66 -19 66 -43
s-30 -43 -66 -43s-65 19 -65 43s29 43 65 43v0z" />
    <glyph glyph-name="Eth" unicode="&#xd0;" horiz-adv-x="771" 
d="M287 738c6 -36 9 -75 9 -116c52 74 140 116 231 116c106 0 205 -77 205 -326c0 -197 -114 -412 -293 -412c-97 0 -155 32 -188 61c8 -24 20 -45 36 -61h-211c-10 63 -13 134 -3 210c5 40 11 79 18 119c-44 -4 -80 -1 -91 19l18 61c11 -18 43 -22 83 -19
c7 43 15 87 20 131c11 80 2 169 -45 217h211v0zM283 410c38 2 68 -2 78 -21l-18 -61c-11 18 -39 22 -76 21c-5 -26 -8 -51 -9 -76c-7 -223 202 -198 280 -14c22 54 33 118 34 178c0 207 -110 268 -211 131c-33 -43 -60 -99 -78 -158v0z" />
    <glyph glyph-name="Ntilde" unicode="&#xd1;" 
d="M628 0h-207c-295 0 -137 304 -145 525c-2 66 -25 148 -107 141c-37 -3 -64 -27 -30 -74c49 -67 56 -171 49 -248c-10 -124 -50 -273 100 -344h-279c-10 63 -13 134 -3 210c13 104 35 207 48 311c11 80 2 169 -45 217h229c51 0 86 -16 103 -67c58 -169 4 -461 119 -568
c-50 96 -9 265 2 393c8 98 8 222 -114 242h272c58 -63 49 -128 38 -206c-23 -163 -88 -383 -30 -532v0zM249 803c-15 1 -30 7 -39 21l23 63c7 -8 14 -13 23 -15c59 -14 113 17 161 15c15 -1 30 -7 39 -21l-23 -63c-7 8 -14 13 -23 15c-59 14 -113 -17 -161 -15v0z" />
    <glyph glyph-name="Ograve" unicode="&#xd2;" 
d="M378 803c-41 27 -143 63 -108 117h103c-45 -21 3 -87 29 -117h-24zM665 409c2 -107 -42 -249 -108 -320c-65 -71 -163 -89 -246 -89c-192 0 -304 42 -311 328c-2 108 42 250 107 321s163 89 247 89c192 0 304 -42 311 -329zM571 467c10 109 -26 158 -57 153
c-85 -15 -402 -158 -420 -349c-10 -109 26 -158 57 -153c85 15 402 158 420 349z" />
    <glyph glyph-name="Oacute" unicode="&#xd3;" 
d="M287 803h-24c25 30 74 96 29 117h102c35 -54 -66 -90 -107 -117zM665 409c2 -107 -42 -249 -108 -320c-65 -71 -163 -89 -246 -89c-192 0 -304 42 -311 328c-2 108 42 250 107 321s163 89 247 89c192 0 304 -42 311 -329zM571 467c10 109 -26 158 -57 153
c-85 -15 -402 -158 -420 -349c-10 -109 26 -158 57 -153c85 15 402 158 420 349z" />
    <glyph glyph-name="Ocircumflex" unicode="&#xd4;" 
d="M332 854c-13 -19 -30 -37 -47 -51h-88s108 51 120 99h30c13 -48 121 -99 121 -99h-89c-16 14 -33 32 -47 51zM665 409c2 -107 -42 -249 -108 -320c-65 -71 -163 -89 -246 -89c-192 0 -304 42 -311 328c-2 108 42 250 107 321s163 89 247 89c192 0 304 -42 311 -329z
M571 467c10 109 -26 158 -57 153c-85 -15 -402 -158 -420 -349c-10 -109 26 -158 57 -153c85 15 402 158 420 349z" />
    <glyph glyph-name="Otilde" unicode="&#xd5;" 
d="M249 803c-16 1 -30 7 -40 21l24 63c6 -8 14 -13 22 -15c60 -14 113 17 161 15c16 -1 30 -7 40 -21l-24 -63c-6 8 -14 13 -22 15c-60 14 -114 -17 -161 -15zM665 409c2 -107 -42 -249 -108 -320c-65 -71 -163 -89 -246 -89c-192 0 -304 42 -311 328c-2 108 42 250 107 321
s163 89 247 89c192 0 304 -42 311 -329zM571 467c10 109 -26 158 -57 153c-85 -15 -402 -158 -420 -349c-10 -109 26 -158 57 -153c85 15 402 158 420 349z" />
    <glyph glyph-name="Odieresis" unicode="&#xd6;" 
d="M257 797c-36 0 -65 19 -65 43c0 23 29 43 65 43s65 -20 65 -43c0 -24 -29 -43 -65 -43zM412 797c-36 0 -65 19 -65 43c0 23 29 43 65 43s66 -20 66 -43c0 -24 -30 -43 -66 -43zM667 403c3 -108 -42 -249 -107 -321c-65 -70 -163 -89 -246 -89c-193 0 -305 42 -311 329
c-3 108 42 249 107 321c65 70 163 89 246 89c193 0 304 -42 311 -329zM573 461c11 108 -26 158 -57 152c-85 -14 -401 -158 -420 -349c-10 -108 27 -158 58 -152c85 14 401 158 419 349z" />
    <glyph glyph-name="Oslash" unicode="&#xd8;" 
d="M665 409c2 -107 -42 -249 -108 -320c-65 -71 -163 -89 -246 -89c-72 0 -132 6 -181 28l-19 -28h-65l39 57c-52 46 -82 129 -85 271c-2 108 42 250 107 321s163 89 247 89c72 0 132 -6 180 -28l20 28h65l-40 -57c53 -47 82 -129 86 -272zM94 271c-8 -85 12 -134 36 -148
l332 482c-121 -43 -353 -172 -368 -334zM571 467c8 85 -13 134 -37 148l-332 -482c121 43 353 172 369 334z" />
    <glyph glyph-name="Ugrave" unicode="&#xd9;" horiz-adv-x="695" 
d="M658 738c11 -62 13 -133 3 -208c-13 -106 -37 -211 -50 -317c-10 -79 0 -165 47 -213h-323c27 23 50 61 70 107c-61 -68 -154 -107 -235 -107c-92 0 -149 39 -164 122c-29 167 139 549 -6 616h267c100 -152 4 -237 -94 -362c-190 -241 -24 -298 124 -219
c150 79 203 267 171 426c-14 64 -44 123 -104 155h294v0zM379 803c-41 27 -142 63 -107 117h102c-45 -21 4 -87 29 -117h-24v0z" />
    <glyph glyph-name="Uacute" unicode="&#xda;" horiz-adv-x="695" 
d="M658 738v0h-294c60 -32 90 -91 104 -155c32 -159 -21 -347 -171 -426c-148 -79 -314 -22 -124 219c98 125 194 210 94 362h-267c145 -67 -23 -449 6 -616c15 -83 72 -122 164 -122c81 0 174 39 235 107c-20 -46 -43 -84 -70 -107h323c-47 48 -57 134 -47 213
c13 106 37 211 50 317c10 75 8 146 -3 208zM288 803v0h-24c26 30 74 96 29 117h103c35 -54 -67 -90 -108 -117z" />
    <glyph glyph-name="Ucircumflex" unicode="&#xdb;" horiz-adv-x="695" 
d="M658 738c11 -62 13 -133 3 -208c-13 -106 -37 -211 -50 -317c-10 -79 0 -165 47 -213h-323c27 23 50 61 70 107c-61 -68 -154 -107 -235 -107c-92 0 -149 39 -164 122c-29 167 139 549 -6 616h267c100 -152 4 -237 -94 -362c-190 -241 -24 -298 124 -219
c150 79 203 267 171 426c-14 64 -44 123 -104 155h294v0zM198 803c0 0 108 51 121 99h30c12 -48 120 -99 120 -99h-88c-17 14 -34 32 -47 51c-14 -19 -31 -37 -47 -51h-89v0z" />
    <glyph glyph-name="Udieresis" unicode="&#xdc;" horiz-adv-x="695" 
d="M658 738c11 -62 13 -133 3 -208c-13 -106 -37 -211 -50 -317c-10 -79 0 -165 47 -213h-323c27 23 50 61 70 107c-61 -68 -154 -107 -235 -107c-92 0 -149 39 -164 122c-29 167 139 549 -6 616h267c100 -152 4 -237 -94 -362c-190 -241 -24 -298 124 -219
c150 79 203 267 171 426c-14 64 -44 123 -104 155h294v0zM256 889c36 0 65 -19 65 -43s-29 -43 -65 -43s-65 19 -65 43s29 43 65 43v0zM411 889c36 0 65 -19 65 -43s-29 -43 -65 -43s-65 19 -65 43s29 43 65 43v0z" />
    <glyph glyph-name="Yacute" unicode="&#xdd;" horiz-adv-x="697" 
d="M668 207v0c18 -149 -54 -208 -193 -208c-123 0 -266 48 -360 24c-24 -5 -46 -17 -63 -40l-52 178c27 37 68 55 111 57c119 6 246 -52 343 -107c67 -38 152 -33 95 83c-49 99 -88 176 -110 258c-43 -79 -106 -148 -187 -180c-132 -52 -307 -12 -235 178
c35 93 94 236 -17 287h267c54 -82 -12 -219 -77 -285c-66 -66 -72 -125 4 -107c155 37 217 248 236 392h235c-47 -47 -57 -134 -47 -213c13 -106 36 -210 50 -317zM290 802v0h-24c25 30 74 96 29 117h102c35 -54 -66 -90 -107 -117z" />
    <glyph glyph-name="germandbls" unicode="&#xdf;" horiz-adv-x="694" 
d="M667 606c0 -73 -55 -148 -150 -170c87 -5 150 -89 150 -170c0 -156 -102 -266 -263 -266c-25 0 -49 2 -70 6l-38 129c52 -5 118 2 179 59c108 98 66 235 -81 159c-52 -27 -100 -73 -128 -114l-36 123c66 39 140 83 194 142c151 164 -5 202 -114 64
c-113 -142 -194 -461 -89 -568h-211c-52 339 100 738 482 738c101 0 175 -42 175 -132v0z" />
    <glyph glyph-name="Ydieresis" unicode="&#x178;" horiz-adv-x="697" 
d="M668 207v0c18 -149 -54 -208 -193 -208c-123 0 -266 47 -360 24c-24 -5 -46 -17 -63 -40l-52 178c27 37 68 55 111 57c119 6 246 -52 343 -107c67 -38 152 -33 95 83c-49 99 -88 176 -110 258c-43 -79 -106 -148 -187 -180c-132 -52 -307 -13 -235 177
c35 94 94 237 -17 288h267c54 -82 -12 -219 -77 -285c-66 -66 -72 -125 4 -107c155 37 217 248 236 392h235c-47 -48 -57 -134 -47 -213c13 -106 36 -211 50 -317zM258 888c36 0 65 -19 65 -43c0 -23 -29 -43 -65 -43s-65 20 -65 43c0 24 29 43 65 43v0zM413 888
c36 0 65 -19 65 -43c0 -23 -29 -43 -65 -43s-65 20 -65 43c0 24 29 43 65 43v0z" />
    <glyph glyph-name="sterling" unicode="&#xa3;" horiz-adv-x="776" 
d="M737 233v-174c-77 -46 -198 -59 -316 -59c-170 0 -267 67 -370 -16l-51 140c39 26 79 60 111 99c-43 2 -76 -4 -89 -20l-22 62c16 25 79 22 150 16c0 0 0 2 2 2c50 97 103 217 296 217c115 0 228 -22 289 -58v-175c-81 59 -186 103 -287 103c-114 0 -173 -48 -215 -97
c93 -10 184 -18 206 12l23 -62c-27 -37 -156 -16 -270 -4c-12 -16 -22 -31 -35 -43c215 -66 380 -89 578 57v0z" />
    <glyph glyph-name="a" unicode="a" horiz-adv-x="619" 
d="M594 0v0h-279c44 21 73 61 82 107c-46 -69 -153 -107 -233 -107c-101 0 -164 48 -164 128c2 149 192 156 298 179c57 12 147 39 175 92c-93 -71 -396 -120 -473 -21l52 139c69 -91 305 -17 413 -17c52 0 104 -16 123 -72c11 -38 0 -84 -8 -119c-17 -57 -34 -113 -42 -173
c-6 -46 -4 -109 56 -136zM463 323v0c-66 -58 -194 -71 -274 -96c-101 -33 -55 -106 36 -106c119 -2 214 91 238 202z" />
    </font>
</defs>
</svg>
